<?xml version="1.0" encoding="iso-8859-1"?>
<!-- Generator: Adobe Illustrator 19.0.0, SVG Export Plug-In . SVG Version: 6.00 Build 0)  -->
<svg version="1.1" id="Layer_1" xmlns="http://www.w3.org/2000/svg" xmlns:xlink="http://www.w3.org/1999/xlink" x="0px" y="0px"
	 viewBox="0 0 512 512" style="enable-background:new 0 0 512 512;" xml:space="preserve">
<g>
	<path style="fill:#415E72;" d="M425.656,318.496l-94.752-88.384c-22.72,16.392-49.84,10.664-65.872,3.048
		c-15.816,17.256-37.32,28.232-60.576,30.912c-21.496,3.432-35.576-0.496-41.952-11.648c-9.168-16,3.016-40.384,16.216-56.368
		C199.2,171.28,306.576,84.8,311.144,81.112L321.168,93.6c-1.112,0.888-110.656,89.144-130.112,112.672
		c-12.112,14.64-18.56,31.44-14.672,38.232c2.592,4.568,11.84,5.984,25.528,3.792c40.064-6.4,53.312-28.488,53.856-29.424
		l4.144-7.128l7.064,4.304c1.376,0.848,34.032,20.72,58.816-2.4l5.456-5.088l95.8,89.36c9.504-8.08,28.72-28.648,21.2-58.12
		l15.504-3.952c10.016,39.2-17.112,68.96-32.84,79.2L425.656,318.496z"/>
	<path style="fill:#415E72;" d="M254.016,142.4c-16.728-18.008-35.256-34.24-55.296-48.464l8.936-13.272
		c21.088,14.872,40.56,31.92,58.096,50.856L254.016,142.4z"/>
	<path style="fill:#415E72;" d="M304.264,474.528c-11.344-0.544-22.368-3.912-32.08-9.8c-39.416-28.04-76.616-59.088-111.248-92.856
		C111.2,322.032,56,243.2,55.44,242.4l13.12-9.152c0.544,0.8,55,78.488,103.704,127.312c33.856,33,70.192,63.352,108.688,90.8
		c4.888,2.968,20.84,10.296,31.16,5.656c6.648-4.032,10.864-11.096,11.264-18.856l1.032-5.672l5.704-0.8
		c1.064-0.16,26.936-4.44,29.784-29.656l0.8-7.2l7.2,0.064c15.168,0.584,27.936-11.24,28.52-26.416
		c0.032-0.776,0.024-1.56-0.008-2.336l0.096-10.016l9.752,2.312c2.216,0.488,22.2,4.56,27.048-12.72
		c5.456-19.496-15.952-35.096-16.168-35.248l9.264-13.048c1.264,0.888,30.84,22.168,22.328,52.608
		c-4.6,16.264-20.208,26.88-37.024,25.168c-2.928,18.8-18.16,33.256-37.08,35.2c-4.848,17.712-18.864,31.44-36.672,35.92
		c-2.12,11.008-9.28,20.384-19.344,25.328C314.08,473.608,309.192,474.592,304.264,474.528z"/>
	
		<rect x="349.514" y="256.842" transform="matrix(0.6891 -0.7247 0.7247 0.6891 -121.8941 359.0727)" style="fill:#415E72;" width="16" height="129.499"/>
	
		<rect x="312.949" y="293.514" transform="matrix(0.689 -0.7247 0.7247 0.689 -159.8338 344.0078)" style="fill:#415E72;" width="15.999" height="129.482"/>
	
		<rect x="276.302" y="330.197" transform="matrix(0.6891 -0.7247 0.7247 0.6891 -197.8164 328.8239)" style="fill:#415E72;" width="16" height="129.499"/>
	<path style="fill:#415E72;" d="M210.92,477.856c-1.328,0-2.656-0.048-4-0.168c-11.12-0.976-21.384-6.376-28.472-15l0,0
		c-0.128,0-67.952-67.832-90.736-90.84c-6.392-6.152-9.752-14.8-9.184-23.656c1.472-22,25.544-41.216,28.28-43.328l9.8,12.656
		c-5.872,4.56-21.28,19.16-22.112,31.768c-0.272,4.272,1.416,8.44,4.592,11.312c22.904,23.144,91.44,91.672,91.44,91.672
		c4.48,5.512,11.032,8.952,18.112,9.512c12.16,0.888,26.56-6.16,41.856-20.592l10.968,11.656
		C243.856,469.464,226.856,477.856,210.92,477.856z"/>
	
		<rect x="174.503" y="424.809" transform="matrix(0.711 -0.7032 0.7032 0.711 -246.9349 264.7824)" style="fill:#415E72;" width="48.32" height="16"/>
	
		<rect x="137.287" y="391.936" transform="matrix(0.7061 -0.7081 0.7081 0.7061 -235.2348 233.0982)" style="fill:#415E72;" width="51.816" height="16"/>
	
		<rect x="102.036" y="357.88" transform="matrix(0.7061 -0.7081 0.7081 0.7061 -221.4802 198.1279)" style="fill:#415E72;" width="51.816" height="16"/>
</g>
<path style="fill:#25B6D2;" d="M331.2,50.144c4.216-0.024,8.272,1.648,11.248,4.632L491.36,204.048
	c6.232,6.264,6.232,16.392,0,22.656l-6.6,6.616c-6.224,6.176-16.264,6.176-22.488,0L313.36,84.048
	c-6.232-6.264-6.232-16.392,0-22.656l6.64-6.616C322.968,51.8,327,50.136,331.2,50.144 M331.2,34.144
	c-8.464-0.016-16.584,3.336-22.56,9.328l-6.6,6.616c-12.416,12.528-12.416,32.728,0,45.256l148.904,149.28
	c12.472,12.448,32.672,12.448,45.144,0l6.6-6.616c12.416-12.528,12.416-32.728,0-45.256L353.784,43.472
	C347.8,37.48,339.672,34.12,331.2,34.144z"/>
<path style="fill:#E04F5F;" d="M209.968,95.352L61.056,244.624c-12.48,12.424-32.664,12.424-45.144,0l-6.6-6.616
	c-12.416-12.528-12.416-32.728,0-45.256l148.904-149.28c12.48-12.424,32.664-12.424,45.144,0l6.6,6.616
	C222.384,62.616,222.384,82.816,209.968,95.352z"/>
<g>
</g>
<g>
</g>
<g>
</g>
<g>
</g>
<g>
</g>
<g>
</g>
<g>
</g>
<g>
</g>
<g>
</g>
<g>
</g>
<g>
</g>
<g>
</g>
<g>
</g>
<g>
</g>
<g>
</g>
</svg>
